# xmcd
#
# Track frame offsets: 
#        150
#        14586
#        33395
#        42653
#        53546
#        64770
#        73632
#        86806
#        97936
#        109998
#        121000
#        130788
#        142822
#        153309
#        164034
#        173044
#        184814
#        194591
#        206945
#        219118
#        230114
#        242016
#
# Disc length: 3406 seconds
#
# Revision: 1
# Processed by: cddbd v1.5.2PL0 Copyright (c) Steve Scherf et al.
# Submitted via: ExactAudioCopy v1.1
#
DISCID=3e0d4c16
DTITLE=Tammy Wynette - D-I-V-O-R-C-E and Stand By Your Man
DYEAR=2017
DGENRE=Country
TTITLE0=Gentle On My Miind (stereo)
TTITLE1=Honey (I Miss You) (stereo)
TTITLE2=The Legend Of Bonnie and Clyde (stereo)
TTITLE3=All Night Long (stereo)
TTITLE4=Sweet Dreams (stereo)
TTITLE5=Yesterday (stereo)
TTITLE6=D-I-V-O-R-C-E (stereo)
TTITLE7=Come On Home (stereo)
TTITLE8=When There's A Fire In Your Heart (stereo)
TTITLE9=Kiss Away (stereo)
TTITLE10=Lonely Street (stereo)
TTITLE11=Stand By Your Man (stereo)
TTITLE12=It's My Way (stereo)
TTITLE13=Forever Yours (stereo)
TTITLE14=I Stayed Long Enough (stereo)
TTITLE15=It Keeps Slipping My Mind (stereo)
TTITLE16=My Arms Stay Open Late (stereo)
TTITLE17=I've Learned (stereo)
TTITLE18=Cry, Cry Again (stereo)
TTITLE19=Joey (stereo)
TTITLE20=If I Were A Little Girl (stereo)
TTITLE21=Don't Make Me Go To School (stereo)
EXTD=
EXTT0=
EXTT1=
EXTT2=
EXTT3=
EXTT4=
EXTT5=
EXTT6=
EXTT7=
EXTT8=
EXTT9=
EXTT10=
EXTT11=
EXTT12=
EXTT13=
EXTT14=
EXTT15=
EXTT16=
EXTT17=
EXTT18=
EXTT19=
EXTT20=
EXTT21=
PLAYORDER=
